# AST/ASF file generated using VICON BodyLanguage
# -----------------------------------------------
:version 1.10
:name VICON
:units
  mass 1.0
  length 0.45
  angle deg
:documentation
   .ast/.asf automatically generated from VICON data using
   VICON BodyBuilder and BodyLanguage model FoxedUp or BRILLIANT.MOD
:root
   order TX TY TZ RX RY RZ
   axis XYZ
   position 0 0 0  
   orientation 0 0 0 
:bonedata
  begin
     id 1 
     name lhipjoint
     direction 0.621036 -0.695554 0.361275 
     length 2.46325 
     axis 0 0 0  XYZ
  end
  begin
     id 2 
     name lfemur
     direction 0.34202 -0.939693 0  
     length 6.54784  
     axis 0 0 20  XYZ
    dof rx ry rz
    limits (-160.0 20.0)
           (-70.0 70.0)
           (-60.0 70.0)
  end
  begin
     id 3 
     name ltibia
     direction 0.34202 -0.939693 0   
     length 7.84737   
     axis 0 0 20   XYZ
    dof rx
    limits (-10.0 170.0)
  end
  begin
     id 4 
     name lfoot
     direction 0.0790693 -0.217241 0.97291   
     length 2.59747   
     axis -90 7.62852e-016 20   XYZ
    dof rx rz
    limits (-45.0 90.0)
           (-70.0 20.0)
  end
  begin
     id 5 
     name ltoes
     direction 1.53572e-011 -4.21898e-011 1   
     length 1.29919   
     axis -90 7.62852e-016 20   XYZ
    dof rx
    limits (-90.0 20.0)
  end
  begin
     id 6 
     name rhipjoint
     direction -0.602353 -0.708375 0.367935   
     length 2.41867  
     axis 0 0 0  XYZ 
  end
  begin
     id 7 
     name rfemur
     direction -0.34202 -0.939693 0   
     length 6.92065   
     axis 0 0 -20   XYZ
    dof rx ry rz
    limits (-160.0 20.0)
           (-70.0 70.0)
           (-70.0 60.0)
  end
  begin
     id 8 
     name rtibia
     direction -0.34202 -0.939693 0   
     length 7.88883   
     axis 0 0 -20   XYZ
    dof rx
    limits (-10.0 170.0)
 end
 begin
     id 9 
     name rfoot
     direction -0.0768692 -0.211196 0.974416   
     length 2.43714  
     axis -90 -7.62852e-016 -20   XYZ
    dof rx rz
    limits (-45.0 90.0)
           (-20.0 70.0)
  end
  begin
     id 10 
     name rtoes
     direction -1.53575e-011 -4.21933e-011 1   
     length 1.22113   
     axis -90 -7.62852e-016 -20   XYZ
    dof rx
    limits (-90.0 20.0)
  end
  begin
     id 11 
     name lowerback
     direction 0.0197937 0.98943 -0.143655   
     length 2.16931   
     axis 0 0 0   XYZ
    dof rx ry rz
    limits (-20.0 45.0)
           (-30.0 30.0)
           (-30.0 30.0)
  end
  begin
     id 12 
     name upperback
     direction -0.00183968 0.999975 0.00684288   
     length 2.17221   
     axis 0 0 0   XYZ
    dof rx ry rz
    limits (-20.0 45.0)
           (-30.0 30.0)
           (-30.0 30.0)
  end
  begin
     id 13 
     name thorax
     direction -0.00950244 0.997208 0.0740685   
     length 2.22549   
     axis 0 0 0   XYZ
    dof rx ry rz
    limits (-20.0 45.0)
           (-30.0 30.0)
           (-30.0 30.0)
  end
  begin
     id 14 
     name lowerneck
     direction 0.0218238 0.996215 0.0841425   
     length 1.77269   
     axis 0 0 0   XYZ
    dof rx ry rz
    limits (-20.0 45.0)
           (-30.0 30.0)
           (-30.0 30.0)
  end
  begin
     id 15 
     name upperneck
     direction -0.00430652 0.994214 -0.107332   
     length 1.76534   
     axis 0 0 0   XYZ
    dof rx ry rz
    limits (-20.0 45.0)
           (-30.0 30.0)
           (-30.0 30.0)
  end
  begin
     id 16
     name head
     direction -0.00328946 0.998959 -0.0454998  
     length 1.82634  
     axis 0 0 0   XYZ
    dof rx ry rz
    limits (-20.0 45.0)
           (-30.0 30.0)
           (-30.0 30.0)
  end
  begin
     id 17 
     name lclavicle
     direction 0.970962 0.239191 0.00450212  
     length 3.84872  
     axis 0 0 0   XYZ
    dof ry rz
    limits (-20.0 10.0)
           (0.0 20.0)
  end
  begin
     id 18 
     name lhumerus
     direction 1 -4.48966e-011 5.74696e-028   
     length 5.22771   
     axis 180 -30 -90   XYZ
    dof rx ry rz
    limits (-60.0 90.0)
           (-90.0 90.0)
           (-90.0 90.0)
  end
  begin
     id 19
     name lradius
     direction 1 -4.4896e-011 4.25109e-027   
     length 3.45251   
     axis 180 -30 -90   XYZ
    dof rx
    limits (-10.0 170.0)
  end
  begin
     id 20
     name lwrist
     direction 1 -4.48971e-011 1.15382e-027   
     length 1.72626   
     axis -5.52449e-016 90 90   XYZ
    dof ry
    limits (-180.0 0.0)
 end
  begin
     id 21 
     name lhand
     direction 1 -4.49034e-011 2.30765e-027   
     length 0.552119   
     axis -1.47248e-015 90 90   XYZ
    dof rx rz
    limits (-90.0 90.0)
           (-45.0 45.0)
  end
  begin
     id 22 
     name lfingers
     direction 1 -4.48951e-011 4.61529e-027   
     length 0.445133   
     axis -2.94495e-015 90 90   XYZ
    dof rx
    limits (0.0 90.0)
  end
  begin
     id 23
     name lthumb
     direction 0.707107 -6.34991e-011 0.707107   
     length 0.639124   
     axis -90 45 2.85299e-015   XYZ
    dof rx rz
    limits (-45.0 45.0)
           (-45.0 45.0)
  end
  begin
     id 24 
     name rclavicle
     direction -0.97424 0.222511 -0.0366699   
     length 3.73439  
     axis 0 0 0   XYZ 
    dof ry rz
    limits (-10.0 20.0)
           (-20.0 0.0)
  end
  begin
     id 25 
     name rhumerus
     direction -1 -4.48956e-011 -4.97258e-028  
     length 5.2398   
     axis 180 30 90   XYZ
    dof rx ry rz
    limits (-90.0 60.0)
           (-90.0 90.0)
           (-90.0 90.0)
  end
  begin
     id 26 
     name rradius
     direction -1 -4.4897e-011 -1.72611e-027   
     length 3.48042   
     axis 180 30 90   XYZ
    dof rx
    limits (-10.0 170.0)
  end
  begin
     id 27 
     name rwrist
     direction -1 -4.48976e-011 1.15382e-027   
     length 1.74021   
     axis -5.52449e-016 -90 -90   XYZ
    dof ry
    limits (-180.0 0.0)
  end
  begin
     id 28
     name rhand
     direction -1 -4.48963e-011 2.30765e-027   
     length 0.618713   
     axis -1.47248e-015 -90 -90   XYZ
    dof rx rz
    limits (-90.0 90.0)
           (-45.0 45.0)
  end
  begin
     id 29
     name rfingers
     direction -1 -4.4888e-011 4.61529e-027   
     length 0.498823   
     axis -2.94495e-015 -90 -90   XYZ
    dof rx
    limits (0.0 90.0)
  end
  begin
     id 30
     name rthumb
     direction -0.707107 -6.34968e-011 0.707107   
     length 0.716213   
     axis -90 -45 -2.85299e-015   XYZ
    dof rx rz
    limits (-45.0 45.0)
           (-45.0 45.0)
  end
:hierarchy
  begin
    root lhipjoint rhipjoint lowerback
    lhipjoint lfemur
    lfemur ltibia
    ltibia lfoot
    lfoot ltoes
    rhipjoint rfemur
    rfemur rtibia
    rtibia rfoot
    rfoot rtoes
    lowerback upperback
    upperback thorax
    thorax lowerneck lclavicle rclavicle
    lowerneck upperneck
    upperneck head
    lclavicle lhumerus
    lhumerus lradius
    lradius lwrist
    lwrist lhand lthumb
    lhand lfingers
    rclavicle rhumerus
    rhumerus rradius
    rradius rwrist
    rwrist rhand rthumb
    rhand rfingers
  end

#!OML:ASF G:\JayActor3\Patient Classification 1\Patient 1\Session 5\male.ASF
:FULLY-SPECIFIED
:DEGREES
368
root -25.5823 14.2564 -7.10089 359.819 -83.2539 -348.287
lowerback 35.3581 -1.23176 0.420581
upperback 7.25136 -2.19988 -0.262974
thorax -9.69865 -1.33613 0.401792
lowerneck -5.11222 -0.328 0.886754
upperneck -17.6806 -0.745687 2.54613
head -5.00223 -0.842132 0.765199
rclavicle -1.13307e-014 -3.19049e-014
rhumerus -19.1727 7.41864 -85.3671
rradius 48.9037
rwrist -7.18285
rhand -20.4998 -9.12549
rfingers 7.12502
rthumb 5.85729 -39.0245
lclavicle -1.13307e-014 -3.19049e-014
lhumerus -19.4003 -9.74777 83.333
lradius 41.9412
lwrist 25.2924
lhand -18.4555 13.9901
lfingers 7.12502
lthumb 7.83068 43.8251
rfemur -57.5834 -4.68287 30.0371
rtibia 84.1166
rfoot -37.0552 -13.582
rtoes 0.595359
lfemur -77.6289 8.22601 -23.6137
ltibia 84.3226
lfoot -6.51512 1.72377
ltoes -19.3716
369
root -25.5023 14.2514 -7.10585 360.232 -83.2094 -348.71
lowerback 35.2754 -1.23705 0.481282
upperback 7.25385 -2.18096 -0.245012
thorax -9.66603 -1.32809 0.379458
lowerneck -5.10938 -0.347611 0.895419
upperneck -17.6724 -0.767152 2.58264
head -4.99939 -0.854689 0.776698
rclavicle -1.81888e-014 2.93207e-014
rhumerus -19.1754 7.28217 -85.2929
rradius 48.8104
rwrist -7.17183
rhand -20.543 -9.12467
rfingers 7.12502
rthumb 5.81557 -39.0249
lclavicle -1.81888e-014 2.93207e-014
lhumerus -19.5021 -9.71483 83.4025
lradius 41.7546
lwrist 25.1886
lhand -18.3581 14.1346
lfingers 7.12502
lthumb 7.92474 43.9661
rfemur -57.9644 -4.84618 30.0952
rtibia 84.114
rfoot -36.7361 -13.3525
rtoes 0.618293
lfemur -77.4326 8.42381 -23.3102
ltibia 86.4493
lfoot -6.71553 1.91552
ltoes -19.8375
370
root -25.4223 14.2465 -7.1095 360.564 -83.1786 -349.034
lowerback 35.1692 -1.23817 0.527095
upperback 7.25631 -2.16176 -0.225608
thorax -9.62424 -1.31955 0.365832
lowerneck -5.09482 -0.363504 0.904961
upperneck -17.6754 -0.784768 2.60867
head -5.00318 -0.865229 0.784622
rclavicle 1.12313e-014 1.10325e-014
rhumerus -19.1638 7.16123 -85.2168
rradius 48.6995
rwrist -7.15703
rhand -20.5801 -9.13274
rfingers 7.12502
rthumb 5.77981 -39.0339
lclavicle 1.12313e-014 1.10325e-014
lhumerus -19.5991 -9.6804 83.4725
lradius 41.5748
lwrist 25.0835
lhand -18.2671 14.2667
lfingers 7.12502
lthumb 8.01256 44.0948
rfemur -58.3586 -5.00842 30.1459
rtibia 84.0986
rfoot -36.4244 -13.13
rtoes 0.679838
lfemur -77.1601 8.61896 -22.997
ltibia 88.4692
lfoot -6.86156 2.01342
ltoes -20.3059
371
root -25.344 14.2434 -7.11122 360.976 -83.1525 -349.43
lowerback 34.9512 -1.24882 0.584078
upperback 7.34433 -2.15154 -0.207241
thorax -9.56749 -1.31529 0.34924
lowerneck -5.08111 -0.368983 0.923471
upperneck -17.6747 -0.789935 2.62149
head -5.00556 -0.869443 0.786023
rclavicle -9.0447e-015 -4.67144e-015
rhumerus -19.1399 7.06461 -85.1496
rradius 48.572
rwrist -7.13397
rhand -20.6061 -9.14738
rfingers 7.12502
rthumb 5.75462 -39.0492
lclavicle -9.0447e-015 -4.67144e-015
lhumerus -19.6962 -9.6321 83.5338
lradius 41.4027
lwrist 24.9801
lhand -18.1799 14.3956
lfingers 7.12502
lthumb 8.09672 44.2205
rfemur -58.7332 -5.18341 30.2033
rtibia 84.0595
rfoot -36.1066 -12.934
rtoes 0.678478
lfemur -76.7853 8.80303 -22.6515
ltibia 90.3716
lfoot -6.9645 1.99946
ltoes -20.72
372
root -25.2666 14.2418 -7.11154 361.363 -83.1379 -349.797
lowerback 34.8013 -1.26081 0.639623
upperback 7.3532 -2.14297 -0.187795
thorax -9.50269 -1.31183 0.333148
lowerneck -5.08125 -0.368977 0.93973
upperneck -17.6604 -0.788568 2.62886
head -5.00012 -0.869623 0.785419
rclavicle -2.44505e-014 1.2921e-015
rhumerus -19.107 6.97799 -85.0866
rradius 48.4357
rwrist -7.10436
rhand -20.6184 -9.16212
rfingers 7.12502
rthumb 5.74277 -39.0643
lclavicle -2.44505e-014 1.2921e-015
lhumerus -19.7862 -9.58033 83.5895
lradius 41.2371
lwrist 24.8793
lhand -18.0973 14.5217
lfingers 7.12502
lthumb 8.17646 44.3435
rfemur -59.0902 -5.35194 30.2513
rtibia 84.0022
rfoot -35.8075 -12.7207
rtoes 0.762291
lfemur -76.3042 8.97977 -22.2808
ltibia 92.1455
lfoot -7.01686 1.87982
ltoes -20.9208
373
root -25.189 14.2406 -7.11091 361.691 -83.1416 -350.099
lowerback 34.6508 -1.26628 0.682532
upperback 7.36093 -2.13106 -0.169231
thorax -9.43844 -1.30659 0.321555
lowerneck -5.09366 -0.365139 0.961285
upperneck -17.6349 -0.784103 2.62258
head -4.98809 -0.867632 0.778808
rclavicle -1.68967e-015 3.25013e-014
rhumerus -19.0658 6.89934 -85.0275
rradius 48.2934
rwrist -7.0708
rhand -20.6322 -9.16962
rfingers 7.12502
rthumb 5.72948 -39.0722
lclavicle -1.68967e-015 3.25013e-014
lhumerus -19.8687 -9.52699 83.641
lradius 41.0779
lwrist 24.7793
lhand -18.0204 14.6313
lfingers 7.12502
lthumb 8.25068 44.4502
rfemur -59.4428 -5.49144 30.2834
rtibia 83.9325
rfoot -35.4964 -12.5104
rtoes 0.867378
lfemur -75.7283 9.15308 -21.887
ltibia 93.7898
lfoot -7.00969 1.65975
ltoes -20.8422
374
root -25.111 14.2403 -7.10963 361.965 -83.168 -350.346
lowerback 34.5134 -1.26173 0.712788
upperback 7.36151 -2.11093 -0.150659
thorax -9.38647 -1.29719 0.314042
lowerneck -5.1152 -0.360532 0.974541
upperneck -17.5958 -0.779055 2.61205
head -4.969 -0.864129 0.771863
rclavicle 1.44119e-014 1.16289e-014
rhumerus -19.0281 6.82449 -84.9685
rradius 48.1528
rwrist -7.03611
rhand -20.6293 -9.17954
rfingers 7.12502
rthumb 5.73224 -39.082
lclavicle 1.44119e-014 1.16289e-014
lhumerus -19.9507 -9.47961 83.692
lradius 40.9286
lwrist 24.6908
lhand -17.9593 14.726
lfingers 7.12502
lthumb 8.30966 44.5426
rfemur -59.7887 -5.59227 30.2995
rtibia 83.8501
rfoot -35.1665 -12.3157
rtoes 0.939116
lfemur -75.0598 9.32961 -21.4755
ltibia 95.3014
lfoot -6.93541 1.3582
ltoes -20.7783
375
root -25.0331 14.2414 -7.10754 362.284 -83.21 -350.636
lowerback 34.3791 -1.25453 0.741056
upperback 7.35884 -2.08798 -0.13034
thorax -9.33895 -1.28641 0.308537
lowerneck -5.14237 -0.35368 0.990363
upperneck -17.5473 -0.772269 2.59184
head -4.94532 -0.85917 0.760905
rclavicle -5.96354e-015 7.35503e-015
rhumerus -18.9915 6.76058 -84.9151
rradius 48.0187
rwrist -7.00605
rhand -20.6163 -9.19519
rfingers 7.12502
rthumb 5.74479 -39.0973
lclavicle -5.96354e-015 7.35503e-015
lhumerus -20.0306 -9.42719 83.7366
lradius 40.7909
lwrist 24.6086
lhand -17.9059 14.8189
lfingers 7.12502
lthumb 8.36118 44.6334
rfemur -60.1195 -5.66221 30.3115
rtibia 83.7497
rfoot -34.8245 -12.1396
rtoes 0.972978
lfemur -74.3039 9.50458 -21.0406
ltibia 96.6844
lfoot -6.80003 0.99876
ltoes -20.7493
376
root -24.9535 14.2427 -7.10537 362.484 -83.2772 -350.793
lowerback 34.2593 -1.23229 0.739832
upperback 7.34374 -2.05585 -0.111638
thorax -9.30985 -1.27053 0.314162
lowerneck -5.16924 -0.347861 1.00071
upperneck -17.4948 -0.766965 2.5696
head -4.92017 -0.854333 0.7502
rclavicle -3.18055e-014 1.94809e-014
rhumerus -18.9627 6.7001 -84.8646
rradius 47.8941
rwrist -6.97611
rhand -20.5986 -9.19838
rfingers 7.12502
rthumb 5.76192 -39.1
lclavicle -3.18055e-014 1.94809e-014
lhumerus -20.1119 -9.37899 83.777
lradius 40.6674
lwrist 24.5363
lhand -17.8579 14.9065
lfingers 7.12502
lthumb 8.40745 44.7191
rfemur -60.4688 -5.68224 30.3057
rtibia 83.6369
rfoot -34.4501 -12.0166
rtoes 0.942529
lfemur -73.501 9.68666 -20.6126
ltibia 97.948
lfoot -6.59318 0.601999
ltoes -20.9671
377
root -24.8735 14.2451 -7.10244 362.654 -83.3573 -350.915
lowerback 34.1452 -1.20916 0.730063
upperback 7.32385 -2.02566 -0.096266
thorax -9.28801 -1.25525 0.321829
lowerneck -5.19835 -0.337482 1.0108
upperneck -17.4411 -0.755407 2.54849
head -4.8942 -0.846444 0.739751
rclavicle -1.53064e-014 2.17669e-014
rhumerus -18.9407 6.65233 -84.8266
rradius 47.7862
rwrist -6.95037
rhand -20.577 -9.20245
rfingers 7.12502
rthumb 5.78273 -39.1035
lclavicle -1.53064e-014 2.17669e-014
lhumerus -20.1931 -9.32306 83.8048
lradius 40.5613
lwrist 24.4796
lhand -17.8192 14.9895
lfingers 7.12502
lthumb 8.44481 44.8006
rfemur -60.8152 -5.67758 30.2949
rtibia 83.503
rfoot -34.0558 -11.9474
rtoes 0.835792
lfemur -72.6392 9.86135 -20.1847
ltibia 99.0937
lfoot -6.35751 0.179868
ltoes -21.3723
